<?xml version="1.0" encoding="UTF-8"?>
<svg id="Capa_1" data-name="Capa 1" xmlns="http://www.w3.org/2000/svg" viewBox="0 0 2736.84 2736.84">
  <defs>
    <style>
      .cls-1 {
        font-family: Raleway-Thin, Raleway;
        font-size: 500px;
      }

      .cls-1, .cls-2 {
        font-weight: 200;
      }

      .cls-3 {
        letter-spacing: .03em;
      }

      .cls-4 {
        letter-spacing: -.04em;
      }

      .cls-5 {
        letter-spacing: .02em;
      }

      .cls-6 {
        letter-spacing: -.03em;
      }

      .cls-7 {
        letter-spacing: .03em;
      }

      .cls-8 {
        letter-spacing: -.03em;
      }

      .cls-9 {
        letter-spacing: .05em;
      }

      .cls-10 {
        letter-spacing: .05em;
      }

      .cls-2 {
        font-family: BitterRoman-ExtraLight, Bitter;
        font-size: 136.9px;
        font-variation-settings: 'wght' 200;
      }

      .cls-11 {
        letter-spacing: .02em;
      }

      .cls-12 {
        letter-spacing: -.01em;
      }

      .cls-13 {
        fill: none;
        stroke: #000;
        stroke-miterlimit: 10;
        stroke-width: 8px;
      }
    </style>
  </defs>
  <path d="M1368.42,51c89.42,0,178.77,9.01,265.56,26.77,84.56,17.3,167.74,43.12,247.22,76.74,78.05,33.01,153.34,73.88,223.76,121.46,69.77,47.14,135.38,101.27,195.01,160.9,59.63,59.63,113.76,125.24,160.9,195.01,47.58,70.43,88.44,145.71,121.46,223.76,33.62,79.48,59.44,162.66,76.74,247.22,17.76,86.79,26.77,176.14,26.77,265.56s-9.01,178.77-26.77,265.56c-17.3,84.56-43.12,167.74-76.74,247.22-33.01,78.05-73.88,153.34-121.46,223.76-47.14,69.77-101.27,135.38-160.9,195.01-59.63,59.63-125.24,113.76-195.01,160.9-70.43,47.58-145.71,88.44-223.76,121.46-79.48,33.62-162.66,59.44-247.22,76.74-86.79,17.76-176.14,26.77-265.56,26.77s-178.77-9.01-265.56-26.77c-84.56-17.3-167.74-43.12-247.22-76.74-78.05-33.01-153.34-73.88-223.76-121.46-69.77-47.14-135.38-101.27-195.01-160.9-59.63-59.63-113.76-125.24-160.9-195.01-47.58-70.43-88.44-145.71-121.46-223.76-33.62-79.48-59.44-162.66-76.74-247.22-17.76-86.79-26.77-176.14-26.77-265.56s9.01-178.77,26.77-265.56c17.3-84.56,43.12-167.74,76.74-247.22,33.01-78.05,73.88-153.34,121.46-223.76,47.14-69.77,101.27-135.38,160.9-195.01,59.63-59.63,125.24-113.76,195.01-160.9,70.43-47.58,145.71-88.44,223.76-121.46,79.48-33.62,162.66-59.44,247.22-76.74,86.79-17.76,176.14-26.77,265.56-26.77m0-51C612.66,0,0,612.66,0,1368.42s612.66,1368.42,1368.42,1368.42,1368.42-612.66,1368.42-1368.42S2124.18,0,1368.42,0h0Z"/>
  <g>
    <text class="cls-1" transform="translate(513.21 1388.97)"><tspan x="0" y="0">CLA</tspan><tspan class="cls-12" x="987.99" y="0">R</tspan><tspan class="cls-8" x="1306.99" y="0">A</tspan></text>
    <line class="cls-13" x1="553.86" y1="1565.94" x2="2159.12" y2="1565.94"/>
    <line class="cls-13" x1="2159.12" y1="1565.94" x2="2246.98" y2="1478.08"/>
    <line class="cls-13" x1="2246.98" y1="1653.81" x2="2159.12" y2="1565.94"/>
    <line class="cls-13" x1="2071.25" y1="1565.94" x2="2159.12" y2="1478.08"/>
    <line class="cls-13" x1="2159.12" y1="1653.81" x2="2071.25" y2="1565.94"/>
    <line class="cls-13" x1="1982.1" y1="1565.94" x2="2069.96" y2="1478.08"/>
    <line class="cls-13" x1="2069.96" y1="1653.81" x2="1982.1" y2="1565.94"/>
    <line class="cls-13" x1="557.14" y1="1565.94" x2="469.28" y2="1478.08"/>
    <line class="cls-13" x1="469.28" y1="1653.81" x2="557.14" y2="1565.94"/>
    <line class="cls-13" x1="641.72" y1="1565.94" x2="553.86" y2="1478.08"/>
    <line class="cls-13" x1="553.86" y1="1653.81" x2="641.72" y2="1565.94"/>
    <line class="cls-13" x1="727.1" y1="1565.94" x2="639.24" y2="1478.08"/>
    <line class="cls-13" x1="639.24" y1="1653.81" x2="727.1" y2="1565.94"/>
    <text class="cls-2" transform="translate(683.17 1776.36)"><tspan class="cls-9" x="0" y="0">J</tspan><tspan class="cls-11" x="51.47" y="0">O</tspan><tspan class="cls-4" x="156.75" y="0">Y</tspan><tspan class="cls-5" x="237.93" y="0">A</tspan><tspan class="cls-9" x="336.64" y="0">S DE </tspan><tspan class="cls-3" x="699.96" y="0">P</tspan><tspan class="cls-7" x="783.34" y="0">L</tspan><tspan class="cls-6" x="862.6" y="0">AT</tspan><tspan class="cls-10" x="1028.11" y="0">A 925</tspan></text>
  </g>
</svg>